<svg width="87" height="37" viewBox="0 0 87 37" fill="none" xmlns="http://www.w3.org/2000/svg">
<g filter="url(#filter0_i_13_73)">
<path d="M13.5511 36H0.460227L6.25568 1.09091H18.9545C22.5 1.09091 25.4545 1.8125 27.8182 3.25568C30.1932 4.6875 31.8693 6.74432 32.8466 9.42614C33.8352 12.0966 34.0227 15.2784 33.4091 18.9716C32.8182 22.5398 31.6307 25.5966 29.8466 28.142C28.0739 30.6875 25.8011 32.6364 23.0284 33.9886C20.2557 35.3295 17.0966 36 13.5511 36ZM10.0739 28.8068H14.0795C16.0341 28.8068 17.7614 28.4545 19.2614 27.75C20.7727 27.0341 22.0227 25.892 23.0114 24.3239C24 22.7443 24.7045 20.6705 25.125 18.1023C25.5341 15.6477 25.517 13.7102 25.0739 12.2898C24.642 10.858 23.8011 9.83523 22.5511 9.22159C21.3125 8.59659 19.6932 8.28409 17.6932 8.28409H13.5L10.0739 28.8068ZM54.6648 9.81818L53.625 15.9545H37.108L38.1477 9.81818H54.6648ZM42.6307 3.54545H50.9659L46.9432 27.767C46.8636 28.2784 46.875 28.6932 46.9773 29.0114C47.0909 29.3182 47.2955 29.5398 47.5909 29.6761C47.8977 29.8011 48.2727 29.8636 48.7159 29.8636C49.0227 29.8636 49.3636 29.8295 49.7386 29.7614C50.1136 29.6932 50.3977 29.642 50.5909 29.608L50.8636 35.625C50.4205 35.75 49.8239 35.892 49.0739 36.0511C48.3352 36.2216 47.4716 36.3295 46.483 36.375C44.483 36.4545 42.8295 36.2216 41.5227 35.6761C40.2273 35.1193 39.3125 34.2557 38.7784 33.0852C38.2557 31.9148 38.1534 30.4489 38.4716 28.6875L42.6307 3.54545ZM77.446 11.625C77.5369 10.3409 77.196 9.34659 76.4233 8.64205C75.6619 7.9375 74.4574 7.58523 72.8097 7.58523C71.7188 7.58523 70.7869 7.72727 70.0142 8.01136C69.2415 8.28409 68.6335 8.67045 68.1903 9.17045C67.7472 9.65909 67.4688 10.2273 67.3551 10.875C67.2528 11.3864 67.2813 11.8409 67.4403 12.2386C67.5994 12.6364 67.8778 12.9886 68.2756 13.2955C68.6847 13.6023 69.1903 13.8693 69.7926 14.0966C70.4063 14.3239 71.0938 14.5227 71.8551 14.6932L74.7188 15.375C76.3778 15.75 77.8153 16.25 79.0312 16.875C80.2585 17.4886 81.2528 18.233 82.0142 19.108C82.7756 19.9716 83.2983 20.9659 83.5824 22.0909C83.8665 23.2159 83.8892 24.4773 83.6506 25.875C83.2869 28.0795 82.4176 29.9716 81.0426 31.5511C79.679 33.1307 77.8949 34.3409 75.6903 35.1818C73.4972 36.0227 70.946 36.4432 68.0369 36.4432C65.1278 36.4432 62.6563 36.0057 60.6222 35.1307C58.5994 34.2443 57.1335 32.9091 56.2244 31.125C55.3153 29.3409 55.071 27.0909 55.4915 24.375H63.554C63.429 25.5 63.571 26.4375 63.9801 27.1875C64.4006 27.9375 65.0483 28.5057 65.9233 28.892C66.7983 29.2784 67.8551 29.4716 69.0938 29.4716C70.2301 29.4716 71.2244 29.3182 72.0767 29.0114C72.9403 28.7045 73.6278 28.2784 74.1392 27.733C74.6619 27.1875 74.9801 26.5625 75.0938 25.858C75.2074 25.2102 75.0994 24.6477 74.7699 24.1705C74.4517 23.6932 73.9063 23.2784 73.1335 22.9261C72.3722 22.5739 71.3722 22.2557 70.1335 21.9716L66.6392 21.1193C63.7528 20.4148 61.5653 19.2898 60.0767 17.7443C58.5994 16.1989 58.0767 14.1023 58.5085 11.4545C58.8722 9.28409 59.7699 7.38636 61.2017 5.76136C62.6449 4.13636 64.4688 2.875 66.6733 1.97727C68.8892 1.06818 71.3267 0.613635 73.9858 0.613635C76.6903 0.613635 78.9631 1.07386 80.804 1.99432C82.6563 2.90341 83.9915 4.1875 84.8097 5.84659C85.6392 7.49432 85.8778 9.42045 85.5256 11.625H77.446Z" fill="url(#paint0_linear_13_73)"/>
</g>
<defs>
<filter id="filter0_i_13_73" x="0.460205" y="0.613647" width="85.5938" height="39.8807" filterUnits="userSpaceOnUse" color-interpolation-filters="sRGB">
<feFlood flood-opacity="0" result="BackgroundImageFix"/>
<feBlend mode="normal" in="SourceGraphic" in2="BackgroundImageFix" result="shape"/>
<feColorMatrix in="SourceAlpha" type="matrix" values="0 0 0 0 0 0 0 0 0 0 0 0 0 0 0 0 0 0 127 0" result="hardAlpha"/>
<feOffset dy="4"/>
<feGaussianBlur stdDeviation="2"/>
<feComposite in2="hardAlpha" operator="arithmetic" k2="-1" k3="1"/>
<feColorMatrix type="matrix" values="0 0 0 0 0 0 0 0 0 0 0 0 0 0 0 0 0 0 0.25 0"/>
<feBlend mode="normal" in2="shape" result="effect1_innerShadow_13_73"/>
</filter>
<linearGradient id="paint0_linear_13_73" x1="43" y1="-10" x2="43" y2="60" gradientUnits="userSpaceOnUse">
<stop stop-color="#54D1B7"/>
<stop offset="1" stop-color="#54D1B7" stop-opacity="0"/>
</linearGradient>
</defs>
</svg>
